<svg xmlns="http://www.w3.org/2000/svg" viewBox="0 0 240 80" fill="currentColor">
  <!-- B -->
  <path d="M8 12 h38 c12 0 20 6 20 16 c0 7 -4 12 -10 14 c8 2 14 8 14 17 c0 11 -9 18 -22 18 H8 V12z M28 36 h14 c6 0 10-3 10-8 s-4-8-10-8 H28 v16z M28 68 h16 c7 0 12-3 12-9 s-5-9-12-9 H28 v18z"/>
  <!-- A -->
  <path d="M90 77 L120 12 L150 77 H130 L125 64 H115 L110 77 H90z M118 50 h4 L120 30 L118 50z M108 56 h24 l4 10 H104 l4-10z"/>
  <!-- S -->
  <path d="M170 60 c0 0 8 10 22 10 c8 0 14-3 14-9 c0-6-6-8-16-11 c-14-4-24-8-24-21 c0-14 12-20 26-20 c16 0 24 8 24 8 l-8 14 c0 0-7-6-16-6 c-7 0-12 3-12 8 c0 6 6 8 16 11 c14 4 24 9 24 22 c0 14-12 21-28 21 c-18 0-28-10-28-10 l6-17z"/>
</svg>
